<svg width="74" height="73" viewBox="0 0 74 73" fill="none" xmlns="http://www.w3.org/2000/svg">
<g clip-path="url(#clip0_2320_378)">
<path d="M68.2864 0H5.71332C3.08609 0 0.956299 2.12979 0.956299 4.75702V67.3301C0.956299 69.9574 3.08609 72.0872 5.71332 72.0872H68.2864C70.9137 72.0872 73.0435 69.9574 73.0435 67.3301V4.75702C73.0435 2.12979 70.9137 0 68.2864 0Z" fill="#EF4047"/>
<path d="M10.5162 49.8115C10.5162 49.5371 10.5162 49.2626 10.6077 49.0339C10.6534 48.8052 10.7449 48.6223 10.8821 48.4393C10.9736 48.2564 11.1108 48.1191 11.248 48.0276C11.3853 47.8904 11.5225 47.7989 11.7055 47.7532C11.8427 47.6617 12.0256 47.616 12.1629 47.616C12.3458 47.616 12.483 47.5702 12.6203 47.5702C12.8947 47.5702 13.1692 47.5702 13.3979 47.7075C13.6266 47.7989 13.8095 47.9362 13.9925 48.0734V45.9236H14.7701V51.9156H14.1754L13.9925 51.4582C13.9467 51.5497 13.8553 51.5954 13.7638 51.6869C13.6723 51.7784 13.5808 51.8241 13.4893 51.8699C13.3979 51.9156 13.2606 51.9613 13.1234 52.0071C12.9862 52.0071 12.8032 52.0528 12.6203 52.0528C12.4373 52.0528 12.1171 52.0528 11.8427 51.9156C11.5682 51.8241 11.3395 51.7326 11.1566 51.5497C10.9736 51.3667 10.7906 51.138 10.6534 50.8636C10.5162 50.5891 10.4705 50.2689 10.4705 49.8573L10.5162 49.8115ZM11.3395 49.8115C11.3395 50.0402 11.3395 50.2689 11.431 50.4519C11.4768 50.6349 11.5682 50.8178 11.7055 50.955C11.8427 51.0923 11.9799 51.1837 12.1629 51.2752C12.3458 51.3667 12.5288 51.3667 12.7575 51.3667C12.9862 51.3667 13.0777 51.3667 13.2149 51.321C13.3521 51.321 13.4893 51.2295 13.5808 51.1838C13.6723 51.138 13.7638 51.0465 13.8553 51.0008C13.9467 50.955 13.9925 50.8636 14.0382 50.8178V48.6223C13.8553 48.4851 13.6723 48.3478 13.4893 48.2564C13.2606 48.1649 13.0319 48.1191 12.8032 48.1191C12.5745 48.1191 12.483 48.1191 12.3458 48.2106C12.1629 48.2564 12.0256 48.3478 11.8884 48.4851C11.7512 48.6223 11.614 48.8052 11.5225 48.9882C11.431 49.2169 11.3853 49.4913 11.3853 49.8115H11.3395Z" fill="white"/>
<path d="M18.6581 51.4125C18.6124 51.504 18.5209 51.5497 18.4294 51.6412C18.3379 51.7327 18.2007 51.7784 18.1092 51.8242C17.972 51.8699 17.8348 51.9157 17.6976 51.9614C17.5604 51.9614 17.3774 52.0071 17.1944 52.0071C17.0115 52.0071 16.737 52.0071 16.5541 51.9157C16.3711 51.8699 16.1881 51.7784 16.0509 51.6412C15.9137 51.504 15.8222 51.3668 15.7307 51.2296C15.6392 51.0466 15.5935 50.8636 15.5935 50.6349C15.5935 50.4062 15.5935 50.2233 15.7307 50.086C15.8222 49.9031 15.9594 49.7659 16.0967 49.6744C16.2339 49.5372 16.4626 49.4457 16.6455 49.3999C16.8742 49.3542 17.1029 49.3085 17.3774 49.3085C17.6061 49.3085 17.8805 49.3085 18.0635 49.3542C18.2922 49.3542 18.4752 49.4457 18.6124 49.4914V49.217C18.6124 49.0798 18.6124 48.9883 18.6124 48.8968C18.6124 48.8053 18.5666 48.7138 18.5209 48.6681C18.4294 48.5309 18.2922 48.3936 18.1092 48.3022C17.9263 48.2107 17.6518 48.1649 17.3316 48.1649C17.0115 48.1649 16.8742 48.1649 16.6455 48.2107C16.4168 48.2107 16.2339 48.3022 16.0052 48.3936V47.799C16.0967 47.799 16.1881 47.7075 16.2796 47.7075C16.3711 47.7075 16.5083 47.6618 16.6455 47.6161C16.7828 47.5703 16.8742 47.6161 17.0115 47.5703C17.1487 47.5703 17.2859 47.5703 17.4231 47.5703C17.9263 47.5703 18.2922 47.6618 18.6124 47.799C18.9326 47.9362 19.1613 48.1649 19.2985 48.3936C19.3442 48.4851 19.39 48.5766 19.39 48.7138C19.39 48.851 19.39 48.9425 19.39 49.0798V51.9157H18.7496L18.6581 51.4583V51.4125ZM18.6124 50.0403C18.4752 50.0403 18.2922 49.9488 18.1092 49.9488C17.9263 49.9488 17.6976 49.9031 17.4689 49.9031C17.1487 49.9031 16.8742 49.9488 16.6913 50.086C16.5083 50.2233 16.4168 50.4062 16.4168 50.6807C16.4168 50.9551 16.4168 50.9094 16.5083 51.0009C16.5541 51.0923 16.5998 51.1838 16.6913 51.2296C16.7828 51.2753 16.8742 51.321 16.9657 51.3668C17.0572 51.3668 17.1944 51.4125 17.3316 51.4125C17.4689 51.4125 17.6518 51.4125 17.7891 51.3668C17.9263 51.3668 18.0635 51.2753 18.155 51.2296C18.2465 51.1838 18.3837 51.0923 18.4294 51.0466C18.5209 51.0009 18.5666 50.9551 18.6124 50.9094V50.0403Z" fill="white"/>
<path d="M24.0554 47.5244C24.2841 47.5244 24.5128 47.5244 24.7415 47.5702C24.9702 47.5702 25.1532 47.6616 25.2904 47.7531V48.3477C25.0617 48.2563 24.8788 48.2105 24.6958 48.1648C24.5128 48.1648 24.3299 48.119 24.1469 48.119C23.9639 48.119 23.7352 48.119 23.5523 48.2105C23.3693 48.2563 23.1864 48.3477 23.0491 48.485C22.9119 48.6222 22.7747 48.8051 22.6832 48.9881C22.5917 49.2168 22.546 49.4455 22.546 49.7657C22.546 50.0859 22.546 50.2231 22.6375 50.4061C22.7289 50.589 22.8204 50.772 22.9577 50.9092C23.0949 51.0464 23.2778 51.1379 23.4608 51.2294C23.6895 51.3209 23.9182 51.3666 24.1926 51.3666C24.4671 51.3666 24.6043 51.3666 24.7873 51.3209C24.9702 51.3209 25.1989 51.2294 25.3819 51.1837V51.7783C25.3362 51.7783 25.2447 51.824 25.1532 51.8698C25.0617 51.8698 24.9702 51.9155 24.833 51.9612C24.6958 52.007 24.6043 51.9612 24.4671 52.007C24.3299 52.007 24.2384 52.007 24.1012 52.007C23.781 52.007 23.4608 52.007 23.1864 51.8698C22.9119 51.7783 22.6375 51.6411 22.4088 51.4581C22.1801 51.2751 21.9971 51.0464 21.9056 50.772C21.7684 50.4976 21.7227 50.1774 21.7227 49.8114C21.7227 49.4455 21.7227 49.2626 21.8141 49.0796C21.8599 48.8509 21.9514 48.6679 22.0886 48.485C22.2258 48.302 22.3173 48.1648 22.5002 48.0733C22.6375 47.9361 22.8204 47.8446 23.0034 47.7989C23.1864 47.7074 23.3693 47.6616 23.5523 47.6159C23.7352 47.6159 23.9182 47.5702 24.1012 47.5702L24.0554 47.5244Z" fill="white"/>
<path d="M30.3676 49.7657C30.3676 50.0859 30.3219 50.4061 30.1846 50.6805C30.0932 50.955 29.9102 51.1837 29.7272 51.3666C29.5443 51.5496 29.2698 51.7325 28.9954 51.824C28.7209 51.9155 28.4008 52.007 28.0348 52.007C27.6689 52.007 27.3487 51.9613 27.0743 51.824C26.7998 51.7325 26.5711 51.5496 26.3424 51.3666C26.1595 51.1837 25.9765 50.955 25.885 50.6805C25.7935 50.4061 25.7478 50.0859 25.7478 49.7657C25.7478 49.4455 25.7935 49.1253 25.9308 48.8509C26.0222 48.5764 26.2052 48.3477 26.3882 48.1648C26.5711 47.9818 26.8456 47.7989 27.12 47.7074C27.3945 47.6159 27.7146 47.5244 28.0806 47.5244C28.4465 47.5244 28.7667 47.5702 29.0411 47.7074C29.3156 47.7989 29.5443 47.9818 29.773 48.1648C29.9559 48.3477 30.1389 48.5764 30.2304 48.8509C30.3219 49.1253 30.3676 49.4455 30.3676 49.7657ZM29.5443 49.7657C29.5443 49.4913 29.5443 49.2626 29.4528 49.0796C29.3613 48.8966 29.2698 48.7137 29.1326 48.5764C28.9954 48.4392 28.8582 48.3477 28.6752 48.2563C28.4922 48.1648 28.3093 48.1648 28.0806 48.1648C27.8519 48.1648 27.6689 48.1648 27.4859 48.2563C27.303 48.3477 27.1658 48.4392 27.0285 48.5764C26.8913 48.7137 26.7998 48.8966 26.7084 49.0796C26.6169 49.2626 26.6169 49.537 26.6169 49.7657C26.6169 49.9944 26.6169 50.2688 26.7084 50.4518C26.7998 50.6348 26.8913 50.8177 27.0285 50.955C27.1658 51.0922 27.303 51.1837 27.4859 51.2751C27.6689 51.3666 27.8519 51.3666 28.0806 51.3666C28.3093 51.3666 28.4922 51.3666 28.6752 51.2751C28.8582 51.1837 28.9954 51.0922 29.1326 50.955C29.2698 50.8177 29.3613 50.6348 29.4528 50.4518C29.5443 50.2688 29.5443 49.9944 29.5443 49.7657Z" fill="white"/>
<path d="M31.8314 48.2564C31.9229 48.1649 32.0143 48.0735 32.1058 47.982C32.1973 47.8905 32.3345 47.8448 32.4717 47.7533C32.609 47.7075 32.7462 47.6161 32.9291 47.6161C33.0664 47.6161 33.2493 47.5703 33.4323 47.5703C33.6153 47.5703 33.844 47.5703 34.0727 47.6618C34.2556 47.7075 34.4386 47.799 34.5758 47.9362C34.713 48.0735 34.8502 48.2107 34.896 48.3936C34.9875 48.5766 35.0332 48.8053 35.0332 49.0798V51.9157H34.2556V49.1712C34.2556 48.8053 34.1641 48.5309 34.0269 48.3936C33.8897 48.2564 33.6153 48.1649 33.3408 48.1649C33.0664 48.1649 32.7919 48.2107 32.5632 48.3479C32.2888 48.4851 32.1058 48.6681 31.9229 48.8968V51.9157H31.1453V47.6618H31.7399L31.8771 48.2564H31.8314Z" fill="white"/>
<path d="M36.634 48.7596C36.634 48.8968 36.634 48.9883 36.7255 49.034C36.7713 49.1255 36.8628 49.1712 36.9542 49.217C37.0457 49.2627 37.1372 49.3085 37.2744 49.3542C37.4116 49.3999 37.5489 49.3999 37.6403 49.4457C37.8233 49.4457 38.0063 49.5372 38.1435 49.5829C38.3265 49.5829 38.4637 49.6744 38.6009 49.7659C38.7381 49.8573 38.8296 49.9488 38.9211 50.1318C39.0126 50.269 39.0583 50.452 39.0583 50.7264C39.0583 51.0009 39.0126 51.1381 38.9211 51.2753C38.8296 51.4583 38.6924 51.5955 38.5094 51.687C38.3265 51.7784 38.1435 51.8699 37.869 51.9614C37.6403 52.0071 37.3659 52.0529 37.0915 52.0529C36.817 52.0529 36.7713 52.0529 36.5883 52.0529C36.4511 52.0529 36.3139 52.0529 36.2224 52.0071C36.1309 52.0071 36.0394 51.9614 35.9479 51.9157C35.8565 51.9157 35.8107 51.8699 35.765 51.8242V51.2296C35.9479 51.321 36.1766 51.3668 36.3596 51.4125C36.5426 51.4125 36.7713 51.4583 37 51.4583C37.2287 51.4583 37.3659 51.4583 37.5031 51.4583C37.6403 51.4583 37.7776 51.3668 37.869 51.321C37.9605 51.2753 38.052 51.1838 38.0977 51.0923C38.1435 51.0009 38.1892 50.9094 38.1892 50.7722C38.1892 50.6349 38.1892 50.5435 38.0977 50.4977C38.052 50.4062 37.9605 50.3605 37.869 50.3147C37.7776 50.269 37.6861 50.2233 37.5489 50.1775C37.4116 50.1775 37.3202 50.1318 37.1829 50.086C37 50.086 36.8628 49.9946 36.6798 49.9488C36.4968 49.9031 36.3596 49.8573 36.2224 49.7659C36.0852 49.6744 35.9479 49.5829 35.8565 49.4457C35.765 49.3085 35.7192 49.1255 35.7192 48.8968C35.7192 48.6681 35.765 48.4851 35.8565 48.3022C35.9479 48.1192 36.0852 47.982 36.2224 47.8905C36.3596 47.799 36.5426 47.7075 36.7713 47.6618C37 47.6161 37.1829 47.5703 37.4116 47.5703C37.6403 47.5703 37.9148 47.5703 38.1435 47.6161C38.3722 47.6161 38.6009 47.7075 38.7839 47.799V48.3936C38.6009 48.3479 38.3722 48.2564 38.1892 48.2107C38.0063 48.2107 37.7776 48.1649 37.5489 48.1192C37.3659 48.1192 37.2287 48.1192 37.0915 48.1649C36.9542 48.1649 36.8628 48.2564 36.7713 48.3022C36.6798 48.3479 36.6341 48.4394 36.5883 48.4851C36.5883 48.5766 36.5426 48.6681 36.5426 48.7596H36.634Z" fill="white"/>
<path d="M42.3058 51.9155C42.2601 51.9155 42.1229 51.9613 41.9857 51.9613C41.8484 51.9613 41.6655 51.9613 41.4825 51.9613C41.2081 51.9613 41.0251 51.9613 40.8421 51.8698C40.6592 51.8241 40.522 51.7326 40.3847 51.6411C40.2475 51.5496 40.156 51.4124 40.1103 51.2752C40.0646 51.138 40.0188 50.955 40.0188 50.772V48.2106H39.104V47.6159H40.0188V46.4724H40.7964V47.6159H42.2601V48.2106H40.7964V50.6805C40.7964 50.772 40.7964 50.8635 40.8421 50.955C40.8421 51.0465 40.9336 51.0922 40.9794 51.1837C41.0708 51.2294 41.1166 51.2752 41.2538 51.3209C41.3453 51.3209 41.4825 51.3667 41.6655 51.3667C41.8484 51.3667 41.8942 51.3667 41.9857 51.3667C42.0771 51.3667 42.2144 51.3667 42.3058 51.3209V51.9155Z" fill="white"/>
<path d="M45.4621 48.2105C45.2791 48.2105 45.0962 48.2105 44.9132 48.2105C44.7303 48.2105 44.5473 48.302 44.4101 48.3477C44.2729 48.3935 44.0899 48.485 43.9984 48.5764C43.8612 48.6679 43.7697 48.7594 43.6782 48.8966V51.8698H42.9006V47.6159H43.4953L43.6325 48.302C43.724 48.2105 43.8154 48.0733 43.9069 47.9818C43.9984 47.8903 44.1356 47.7989 44.2729 47.7531C44.4101 47.6616 44.593 47.6159 44.7303 47.5702C44.9132 47.5702 45.0962 47.5244 45.2791 47.5244C45.4621 47.5244 45.3706 47.5244 45.3706 47.5244C45.3706 47.5244 45.4164 47.5244 45.4621 47.5244V48.2105Z" fill="white"/>
<path d="M47.749 52.0071C47.5203 52.0071 47.2916 52.0071 47.0629 51.9157C46.8342 51.8242 46.697 51.7784 46.514 51.7327C46.3768 51.6412 46.2395 51.5497 46.1481 51.4125C46.0566 51.2753 45.9651 51.1381 45.9194 51.0009C45.8736 50.9094 45.8279 50.7722 45.8279 50.6349C45.8279 50.4977 45.8279 50.3605 45.8279 50.2233V47.6161H46.6055V50.2233C46.6055 50.452 46.6055 50.6349 46.697 50.8179C46.7884 51.0009 46.9257 51.1381 47.1086 51.2296C47.2916 51.321 47.5203 51.3668 47.7947 51.3668C48.0692 51.3668 48.3436 51.321 48.5266 51.1838C48.7095 51.0923 48.8468 50.9094 48.9382 50.7264C48.984 50.5892 49.0297 50.4062 49.0297 50.1775V47.5703H49.8073V50.1775C49.8073 50.3147 49.8073 50.452 49.8073 50.5892C49.8073 50.7264 49.7616 50.8179 49.7158 50.9094C49.6701 51.0466 49.5786 51.1838 49.4414 51.321C49.3499 51.4583 49.2127 51.5497 49.0297 51.6412C48.8925 51.7327 48.7095 51.8242 48.4808 51.8699C48.2521 51.9157 48.0234 51.9614 47.7947 51.9614L47.749 52.0071Z" fill="white"/>
<path d="M52.2775 51.9614C52.003 51.9614 51.7743 51.8699 51.5456 51.7327C51.3169 51.6412 51.134 51.504 50.951 51.321C50.768 51.1381 50.6308 50.9551 50.5393 50.6807C50.4478 50.452 50.4021 50.1318 50.4021 49.8116C50.4021 49.4914 50.4021 49.2627 50.4936 49.0798C50.5393 48.8511 50.6308 48.6681 50.768 48.4851C50.9052 48.3022 50.9967 48.1649 51.1797 48.0735C51.3169 47.9362 51.4999 47.8448 51.6828 47.799C51.8658 47.7075 52.0488 47.6618 52.2317 47.6161C52.4147 47.6161 52.5976 47.5703 52.7806 47.5703C52.9636 47.5703 53.238 47.5703 53.4667 47.6161C53.6954 47.6161 53.8784 47.7075 54.0156 47.799V48.3936C53.7869 48.3022 53.6039 48.2564 53.421 48.2107C53.238 48.2107 53.0551 48.1649 52.8721 48.1649C52.6891 48.1649 52.4604 48.1649 52.2775 48.2564C52.0945 48.3022 51.9115 48.3936 51.7743 48.5309C51.6371 48.6681 51.4999 48.851 51.4084 49.034C51.3169 49.2627 51.2712 49.4914 51.2712 49.8116C51.2712 50.1318 51.2712 50.269 51.3627 50.452C51.4541 50.6349 51.5456 50.8179 51.6828 50.9551C51.8201 51.0923 52.003 51.1838 52.2317 51.2753C52.4604 51.3668 52.6891 51.4125 53.0093 51.4125C53.3295 51.4125 53.421 51.4125 53.6497 51.3668C53.8784 51.3668 54.0613 51.2753 54.2443 51.2296V51.8242C54.1986 51.8242 54.1071 51.8699 54.0156 51.9157C53.9241 51.9157 53.8326 51.9614 53.7412 52.0071C53.6497 52.0529 53.5125 52.0072 53.3752 52.0529C53.238 52.0529 53.1465 52.0529 53.0093 52.0529L52.8721 52.5103C53.0093 52.5103 53.1465 52.556 53.2838 52.6018C53.421 52.6018 53.5125 52.6933 53.6039 52.739C53.6954 52.7847 53.7412 52.8762 53.7869 52.9677C53.8326 53.0592 53.8784 53.1507 53.8784 53.2421C53.8784 53.3336 53.8326 53.5166 53.7412 53.6538C53.6497 53.7453 53.5125 53.8368 53.3752 53.9283C53.238 54.0197 53.0551 54.0655 52.8721 54.1112C52.6891 54.1112 52.5062 54.157 52.3232 54.157C52.1402 54.157 52.0488 54.157 51.9115 54.157C51.7743 54.157 51.6828 54.157 51.6371 54.1112V53.6081C51.6371 53.6081 51.7286 53.6081 51.7743 53.6081C51.8201 53.6081 51.8658 53.6081 51.9573 53.6081C52.003 53.6081 52.0488 53.6081 52.1402 53.6081C52.186 53.6081 52.2317 53.6081 52.2775 53.6081C52.3689 53.6081 52.4604 53.6081 52.5519 53.6081C52.6434 53.6081 52.7349 53.6081 52.7806 53.5623C52.8721 53.5623 52.9178 53.5166 52.9636 53.4708C53.0093 53.4251 53.0551 53.3794 53.0551 53.2879C53.0551 53.1964 53.0551 53.1507 52.9636 53.1507C52.9178 53.1507 52.8264 53.0592 52.7806 53.0592C52.6891 53.0592 52.5976 53.0134 52.4604 53.0134C52.3232 53.0134 52.186 53.0134 52.0488 53.0134L52.3689 52.1444L52.2775 51.9614Z" fill="white"/>
<path d="M57.5834 51.4124C57.5377 51.5039 57.4462 51.5496 57.3547 51.6411C57.2632 51.7326 57.126 51.7783 57.0345 51.824C56.8973 51.8698 56.7601 51.9155 56.6229 51.9613C56.4856 51.9613 56.3027 52.007 56.1197 52.007C55.9368 52.007 55.6623 52.007 55.4794 51.9155C55.2964 51.8698 55.1134 51.7783 54.9762 51.6411C54.839 51.5039 54.7475 51.3666 54.656 51.2294C54.5645 51.0465 54.5188 50.8635 54.5188 50.6348C54.5188 50.4061 54.5188 50.2231 54.656 50.0859C54.7475 49.9029 54.8847 49.7657 55.0219 49.6742C55.1592 49.537 55.3879 49.4455 55.5708 49.3998C55.7995 49.3541 56.0282 49.3083 56.3027 49.3083C56.5314 49.3083 56.8058 49.3083 56.9888 49.3541C57.2175 49.3541 57.4005 49.4455 57.5377 49.4913V49.2168C57.5377 49.0796 57.5377 48.9881 57.5377 48.8967C57.5377 48.8052 57.4919 48.7137 57.4462 48.6679C57.3547 48.5307 57.2175 48.3935 57.0345 48.302C56.8516 48.2105 56.5771 48.1648 56.2569 48.1648C55.9368 48.1648 55.7995 48.1648 55.5708 48.2105C55.3421 48.2105 55.1592 48.302 54.9305 48.3935V47.7989C55.0219 47.7989 55.1134 47.7074 55.2049 47.7074C55.2964 47.7074 55.4336 47.6617 55.5708 47.6159C55.7081 47.6159 55.8453 47.6159 55.9368 47.5702C56.074 47.5702 56.2112 47.5702 56.3484 47.5702C56.8516 47.5702 57.2175 47.6617 57.5377 47.7989C57.8579 47.9361 58.0866 48.1648 58.2238 48.3935C58.2695 48.485 58.3153 48.5765 58.3153 48.7137C58.3153 48.8509 58.3153 48.9424 58.3153 49.0796V51.9155H57.6749L57.5834 51.4581V51.4124ZM54.839 46.7926V46.7011C54.839 46.6096 54.839 46.5181 54.839 46.3809C54.839 46.2894 54.9305 46.198 54.9762 46.1065C55.0219 46.015 55.1134 45.9693 55.2506 45.9235C55.3421 45.8778 55.4794 45.832 55.6623 45.832C55.8453 45.832 55.9368 45.832 56.074 45.8778C56.2112 45.8778 56.3484 45.9693 56.4399 46.015C56.5314 46.0607 56.6686 46.1065 56.7601 46.1522C56.8516 46.1522 56.943 46.198 57.0345 46.198C57.126 46.198 57.2175 46.198 57.2632 46.1065C57.309 46.0607 57.3547 45.9235 57.3547 45.832H57.9951V45.9235C57.9951 46.015 57.9951 46.1065 57.9951 46.2437C57.9951 46.3352 57.9036 46.4267 57.8579 46.5181C57.8121 46.6096 57.7206 46.6554 57.5834 46.7011C57.4919 46.7468 57.3547 46.7926 57.1718 46.7926C56.9888 46.7926 56.8973 46.7926 56.7601 46.7468C56.6229 46.7468 56.4856 46.6554 56.3942 46.6096C56.3027 46.5639 56.1655 46.5181 56.074 46.4724C55.9825 46.4724 55.891 46.4267 55.7995 46.4267C55.7081 46.4267 55.6166 46.4267 55.5708 46.5181C55.5251 46.5639 55.4794 46.7011 55.4794 46.7926H54.839ZM57.5377 50.0402C57.4005 50.0402 57.2175 49.9487 57.0345 49.9487C56.8516 49.9487 56.6229 49.9029 56.3942 49.9029C56.074 49.9029 55.7995 49.9487 55.6166 50.0859C55.4336 50.2231 55.3421 50.4061 55.3421 50.6805C55.3421 50.955 55.3421 50.9092 55.4336 51.0007C55.4794 51.0922 55.5251 51.1837 55.6166 51.2294C55.7081 51.2752 55.7995 51.3209 55.891 51.3666C55.9825 51.3666 56.1197 51.4124 56.2569 51.4124C56.3942 51.4124 56.5771 51.4124 56.7143 51.3666C56.8516 51.3666 56.9888 51.2752 57.0803 51.2294C57.1718 51.1837 57.309 51.0922 57.3547 51.0465C57.4462 51.0007 57.4919 50.955 57.5377 50.9092V50.0402Z" fill="white"/>
<path d="M63.621 49.7657C63.621 50.0859 63.5753 50.4061 63.4381 50.6805C63.3466 50.955 63.1636 51.1837 62.9807 51.3666C62.7977 51.5496 62.5232 51.7325 62.2488 51.824C61.9744 51.9155 61.6542 52.007 61.2882 52.007C60.9223 52.007 60.6021 51.9613 60.3277 51.824C60.0533 51.7325 59.8245 51.5496 59.5958 51.3666C59.4129 51.1837 59.2299 50.955 59.1384 50.6805C59.047 50.4061 59.0012 50.0859 59.0012 49.7657C59.0012 49.4455 59.047 49.1253 59.1842 48.8509C59.2757 48.5764 59.4586 48.3477 59.6416 48.1648C59.8246 47.9818 60.099 47.7989 60.3734 47.7074C60.6479 47.6159 60.9681 47.5244 61.334 47.5244C61.6999 47.5244 62.0201 47.5702 62.2945 47.7074C62.569 47.7989 62.7977 47.9818 63.0264 48.1648C63.2094 48.3477 63.3923 48.5764 63.4838 48.8509C63.5753 49.1253 63.621 49.4455 63.621 49.7657ZM62.7977 49.7657C62.7977 49.4913 62.7977 49.2626 62.7062 49.0796C62.6147 48.8966 62.5232 48.7137 62.386 48.5764C62.2488 48.4392 62.1116 48.3477 61.9286 48.2563C61.7457 48.1648 61.5627 48.1648 61.334 48.1648C61.1053 48.1648 60.9223 48.1648 60.7394 48.2563C60.5564 48.3477 60.4192 48.4392 60.282 48.5764C60.1447 48.7137 60.0533 48.8966 59.9618 49.0796C59.8703 49.2626 59.8703 49.537 59.8703 49.7657C59.8703 49.9944 59.8703 50.2688 59.9618 50.4518C60.0533 50.6348 60.1447 50.8177 60.282 50.955C60.4192 51.0922 60.5564 51.1837 60.7394 51.2751C60.9223 51.3666 61.1053 51.3666 61.334 51.3666C61.5627 51.3666 61.7457 51.3666 61.9286 51.2751C62.1116 51.1837 62.2488 51.0922 62.386 50.955C62.5232 50.8177 62.6147 50.6348 62.7062 50.4518C62.7977 50.2688 62.7977 49.9944 62.7977 49.7657Z" fill="white"/>
<path d="M52.6432 33.2533C52.6432 30.2345 55.1132 28.3591 58.1778 28.3591C61.2424 28.3591 61.5626 28.6335 63.072 29.5483L63.6209 23.968C61.9743 23.0989 60.0074 22.6873 57.263 22.6873C54.5185 22.6873 50.1732 24.1967 48.0234 26.8954C49.1212 28.6793 49.7615 30.7833 49.7615 33.0704C49.7615 35.3574 49.0297 37.5529 47.7947 39.4283C49.8987 42.31 53.4665 43.9566 57.3087 43.9566C61.1509 43.9566 61.7456 43.4992 63.0263 42.8589L63.5752 37.0955C61.837 37.9646 60.2819 38.3305 58.498 38.3305C55.2961 38.3305 52.6432 36.4552 52.6432 33.3906V33.2533Z" fill="white"/>
<path d="M27.303 26.1179C26.6626 25.386 25.885 24.7457 25.0617 24.2425C25.0159 24.2425 24.9702 24.1968 24.8787 24.151C24.8787 24.151 24.7872 24.1053 24.7415 24.1053C23.232 23.282 21.2652 22.7788 19.0239 22.7788C16.4167 22.7788 13.4893 23.2362 11.8884 24.0595L12.3 28.9995C13.6723 28.2677 16.0965 27.7188 18.5665 27.7188C20.945 27.7188 21.8598 28.6336 21.8598 29.8686V30.5547L17.6059 30.8749C13.4436 31.1951 10.3332 33.5736 10.2875 37.2328C10.196 41.3495 13.5808 43.728 17.9261 43.8195C22.2257 43.9567 25.5648 42.5845 27.2572 40.4804V26.1179H27.303ZM21.997 36.501C21.997 38.1934 20.2589 39.4284 18.5665 39.3826C17.24 39.3826 16.3252 38.4678 16.371 37.4158C16.371 36.1808 17.1943 34.9915 19.1611 34.8543L22.0428 34.6256V36.4552L21.997 36.501Z" fill="white"/>
<path d="M48.618 32.9789C48.618 27.3985 44.4099 22.8702 39.1955 22.8702C33.9811 22.8702 35.9479 23.1904 34.7129 23.8308L34.5757 23.9223V18.0217H28.4922V40.7548C29.0411 41.0292 33.2949 44.7342 40.1103 43.2705C40.7049 43.179 41.2538 42.9961 41.8027 42.8131C41.8027 42.8131 41.8942 42.8131 41.9399 42.8131C45.7364 41.3494 48.6638 37.4615 48.6638 33.0704L48.618 32.9789ZM41.1623 36.7754C40.2475 37.7817 39.0125 38.2848 37.3659 38.2848C35.7192 38.2848 36.0394 38.2848 35.6277 38.1933C35.2161 38.1018 34.8501 38.0104 34.4842 37.8731V31.9726C34.4842 30.7834 34.8044 29.8228 35.4905 29.0909C36.1309 28.3591 37.1372 27.9932 38.5094 27.9932C39.8816 27.9932 41.2081 29.0909 41.5283 29.5026C41.8484 29.96 42.0771 30.4632 42.2144 31.0121C42.3516 31.6067 42.4431 32.1556 42.4431 32.7502C42.4431 34.3969 41.9857 35.7233 41.1166 36.7296L41.1623 36.7754Z" fill="white"/>
</g>
<defs>
<clipPath id="clip0_2320_378">
<rect width="72.0872" height="72.0872" fill="white" transform="translate(0.956299)"/>
</clipPath>
</defs>
</svg>
